<svg width="24" height="24" viewBox="0 0 24 24" fill="none" xmlns="http://www.w3.org/2000/svg">
	<path fill-rule="evenodd" clip-rule="evenodd" d="M21.9062 19.9302C20.9109 17.6415 20.7395 15.7022 20.7128 14.9403V8.67118C20.7128 3.88205 16.8111 0 11.9985 0C7.18528 0 3.28347 3.88205 3.28347 8.67118V15.0309C3.24629 15.8507 3.05072 17.7306 2.09383 19.9302C0.807675 22.8858 1.87209 22.5335 2.82549 22.2904C3.77876 22.0482 5.90772 21.0989 6.57281 22.2683C7.23763 23.4372 7.79225 24.4523 9.3443 23.7904C10.8965 23.1288 11.6279 22.9083 11.8495 22.9083H12.151C12.3723 22.9083 13.104 23.1288 14.656 23.7904C16.2081 24.4523 16.7624 23.4372 17.4276 22.2683C18.0925 21.0989 20.2213 22.0482 21.1748 22.2904C22.1282 22.5335 23.1921 22.8858 21.9062 19.9302Z" fill="url(#paint0_linear_2835_40358)" />
	<g clip-path="url(#clip0_2835_40358)">
		<path fill-rule="evenodd" clip-rule="evenodd" d="M11.5 6.25C9.70507 6.25 8.25 7.70507 8.25 9.5C8.25 11.2949 9.70507 12.75 11.5 12.75C13.2949 12.75 14.75 11.2949 14.75 9.5C14.75 7.70507 13.2949 6.25 11.5 6.25ZM6.75 9.5C6.75 6.87665 8.87665 4.75 11.5 4.75C14.1234 4.75 16.25 6.87665 16.25 9.5C16.25 12.1234 14.1234 14.25 11.5 14.25C8.87665 14.25 6.75 12.1234 6.75 9.5Z" fill="white" />
		<path fill-rule="evenodd" clip-rule="evenodd" d="M13.7946 11.7949C14.0875 11.502 14.5624 11.502 14.8553 11.7949L17.0303 13.9699C17.3232 14.2628 17.3232 14.7376 17.0303 15.0305C16.7374 15.3234 16.2625 15.3234 15.9696 15.0305L13.7946 12.8555C13.5017 12.5626 13.5017 12.0878 13.7946 11.7949Z" fill="white" />
	</g>
	<defs>
		<linearGradient id="paint0_linear_2835_40358" x1="6.45203" y1="2.00031" x2="19.4315" y2="16.3044" gradientUnits="userSpaceOnUse">
			<stop stop-color="#67A73A" />
			<stop offset="1" stop-color="#00AEF0" />
		</linearGradient>
		<clipPath id="clip0_2835_40358">
			<rect width="12" height="12" fill="white" transform="translate(6 4)" />
		</clipPath>
	</defs>
</svg>
